<svg width="213" height="33" viewBox="0 0 213 33" fill="none" xmlns="http://www.w3.org/2000/svg">
<path d="M29.6299 18.1024V4.96745C29.6159 3.85969 30.3485 3.12598 31.4334 3.12598C32.5183 3.12598 33.2368 3.85969 33.2368 4.96745L33.2227 17.6276C33.2227 23.9002 35.787 26.5473 42.0144 26.5473L46.5511 26.5329C47.636 26.5473 48.3546 27.2667 48.3546 28.3744C48.3546 29.4822 47.636 30.2303 46.5511 30.2159H41.4931C33.899 30.2303 29.6159 25.8568 29.6299 18.1024ZM90.7207 3.34177H93.3417C100.936 3.34177 105.177 7.68651 105.191 15.4553V28.619C105.177 29.7267 104.472 30.446 103.387 30.446C102.302 30.446 101.57 29.7267 101.584 28.619L101.556 15.9444C101.57 9.65748 99.0196 7.05351 92.8065 7.05351H91.2566C85.0428 7.05351 82.4645 9.64309 82.4645 15.9444L82.479 28.6046C82.4645 29.7267 81.7599 30.446 80.6757 30.446C79.5908 30.446 78.8579 29.7267 78.8717 28.6046V15.4553C78.8579 7.68651 83.1272 3.34177 90.7207 3.34177ZM11.8493 3.34177H14.4699C21.6836 3.34177 26.3048 7.2693 26.3048 14.664C26.3048 22.0011 21.6836 26.0006 14.4699 25.9862H9.28499C8.18605 26.0006 7.4816 25.2525 7.4816 24.1448C7.4816 23.037 8.18605 22.3176 9.28499 22.3032L13.9345 22.3176C19.7674 22.3176 22.6839 20.0589 22.6839 14.664C22.6839 9.26903 19.7674 7.05351 13.9345 7.05351H12.3847C6.1713 7.05351 3.59296 9.64309 3.59296 15.9444L3.60705 28.6046C3.59296 29.7267 2.8885 30.446 1.80362 30.446C0.718753 30.446 -0.0138895 29.7267 0.000199708 28.6046V15.4553C-0.0138895 7.68651 4.25516 3.34177 11.8493 3.34177ZM120.646 3.34177H123.267C130.862 3.34177 135.116 7.68651 135.116 15.4553V21.7565C135.102 22.8787 134.398 23.6269 133.313 23.6269C132.228 23.6269 131.495 22.8787 131.51 21.7565L131.482 15.93C131.495 9.64309 128.945 7.03912 122.732 7.03912H121.182C114.968 7.03912 112.39 9.61431 112.39 15.93V17.6132C112.39 23.9146 114.955 26.5329 121.182 26.5329H131.172C133.75 26.5329 134.651 27.1803 136.032 28.5902L136.863 29.439C137.765 30.3598 137.85 31.4819 137.075 32.2588C136.3 33.05 135.243 33.0068 134.2 31.9279L133.285 30.9927C132.834 30.5468 132.425 30.2015 131.298 30.1871H120.633C113.052 30.2015 108.784 25.8424 108.784 18.0736V15.4409C108.797 7.68652 113.052 3.34177 120.646 3.34177ZM52.5391 15.9444V17.6276C52.5391 23.929 55.1033 26.5473 61.3308 26.5473H62.8806C69.094 26.5473 71.6301 23.929 71.6301 17.6276V15.9444C71.6301 9.64309 69.094 7.05351 62.8806 7.05351H61.3308C55.1174 7.05351 52.5391 9.62871 52.5391 15.9444ZM60.7954 3.34177H63.416C71.0101 3.34177 75.265 7.68651 75.265 15.4553V18.088C75.265 25.8568 71.0101 30.2015 63.416 30.2015H60.7954C53.2013 30.2015 48.9464 25.8568 48.9464 18.088V15.4553C48.9464 7.68651 53.2154 3.34177 60.7954 3.34177Z" fill="#494949"/>
<path d="M203.012 1H159.243C154.279 1 150.255 4.94588 150.255 9.81336V23.6082C150.255 28.4757 154.279 32.4215 159.243 32.4215H203.012C207.976 32.4215 212 28.4757 212 23.6082V9.81336C212 4.94588 207.976 1 203.012 1Z" stroke="#494949"/>
<path d="M165.878 23.6917C164.012 23.6917 162.334 22.978 160.843 21.5506L161.89 20.4512C163.22 21.6857 164.556 22.3029 165.898 22.3029C166.905 22.3029 167.724 22.0201 168.355 21.4542C168.986 20.8883 169.302 20.1618 169.302 19.2745C169.302 18.4387 168.973 17.7572 168.315 17.2299C167.67 16.7027 166.831 16.4391 165.798 16.4391C164.831 16.4391 163.844 16.6963 162.837 17.2106L161.77 16.5355L162.172 9.95803H170.288V11.3661H163.562L163.26 15.6868C164.213 15.2882 165.14 15.0889 166.039 15.0889C167.449 15.0889 168.61 15.4682 169.523 16.2269C170.45 16.9727 170.913 17.9822 170.913 19.2553C170.913 20.5669 170.443 21.6343 169.503 22.4572C168.563 23.2801 167.355 23.6917 165.878 23.6917ZM183.607 21.6664C182.506 23.0166 181.069 23.6917 179.297 23.6917C177.525 23.6917 176.088 23.0231 174.987 21.6856C173.9 20.3354 173.356 18.6766 173.356 16.7091C173.356 14.7674 173.906 13.1214 175.007 11.7712C176.122 10.4081 177.565 9.72656 179.337 9.72656C181.109 9.72656 182.539 10.4017 183.627 11.7519C184.714 13.0893 185.258 14.7417 185.258 16.7091C185.258 18.6509 184.708 20.3033 183.607 21.6664ZM176.216 20.6633C177.021 21.7563 178.062 22.3029 179.337 22.3029C180.613 22.3029 181.64 21.7628 182.418 20.6826C183.211 19.5897 183.607 18.2651 183.607 16.7091C183.607 15.1789 183.204 13.8672 182.398 12.7742C181.606 11.6683 180.572 11.1154 179.297 11.1154C178.021 11.1154 176.988 11.6619 176.195 12.7549C175.403 13.8351 175.007 15.1532 175.007 16.7091C175.007 18.2394 175.41 19.5574 176.216 20.6633ZM198.003 21.6664C196.902 23.0166 195.466 23.6917 193.693 23.6917C191.921 23.6917 190.484 23.0231 189.384 21.6856C188.296 20.3354 187.752 18.6766 187.752 16.7091C187.752 14.7674 188.303 13.1214 189.404 11.7712C190.518 10.4081 191.961 9.72656 193.734 9.72656C195.506 9.72656 196.936 10.4017 198.023 11.7519C199.111 13.0893 199.654 14.7417 199.654 16.7091C199.654 18.6509 199.104 20.3033 198.003 21.6664ZM190.612 20.6633C191.418 21.7563 192.458 22.3029 193.734 22.3029C195.009 22.3029 196.036 21.7628 196.815 20.6826C197.607 19.5897 198.003 18.2651 198.003 16.7091C198.003 15.1789 197.6 13.8672 196.795 12.7742C196.003 11.6683 194.969 11.1154 193.693 11.1154C192.418 11.1154 191.384 11.6619 190.592 12.7549C189.8 13.8351 189.404 15.1532 189.404 16.7091C189.404 18.2394 189.806 19.5574 190.612 20.6633Z" fill="#494949"/>
</svg>
