<svg width="88" height="20" viewBox="0 0 88 20" fill="none" xmlns="http://www.w3.org/2000/svg">
<path d="M18.949 10.3426V1.93292C18.94 1.22367 19.4085 0.753906 20.1023 0.753906C20.7961 0.753906 21.2557 1.22367 21.2557 1.93292L21.2467 10.0386C21.2467 14.0547 22.8866 15.7495 26.8692 15.7495L29.7705 15.7403C30.4643 15.7495 30.9238 16.2101 30.9238 16.9193C30.9238 17.6286 30.4643 18.1075 29.7705 18.0983H26.5358C21.6792 18.1075 18.94 15.3074 18.949 10.3426ZM58.0181 0.892072H59.6941C64.5507 0.892072 67.2628 3.67381 67.2718 8.64778V17.0759C67.2628 17.7851 66.8123 18.2457 66.1185 18.2457C65.4247 18.2457 64.9561 17.7851 64.9651 17.0759L64.9471 8.96096C64.9561 4.93573 63.3253 3.26852 59.3517 3.26852H58.3605C54.3869 3.26852 52.738 4.92651 52.738 8.96096L52.747 17.0667C52.738 17.7851 52.2875 18.2457 51.5937 18.2457C50.8999 18.2457 50.4314 17.7851 50.4404 17.0667V8.64778C50.4314 3.67381 53.1615 0.892072 58.0181 0.892072ZM7.57788 0.892072H9.25381C13.8671 0.892072 16.8226 3.40669 16.8226 8.14117C16.8226 12.8388 13.8671 15.3995 9.25381 15.3903H5.93798C5.23517 15.3995 4.78465 14.9205 4.78465 14.2113C4.78465 13.502 5.23517 13.0415 5.93798 13.0322L8.91142 13.0415C12.6417 13.0415 14.5069 11.5953 14.5069 8.14117C14.5069 4.68702 12.6417 3.26852 8.91142 3.26852H7.92027C3.94669 3.26852 2.29778 4.92651 2.29778 8.96096L2.30679 17.0667C2.29778 17.7851 1.84726 18.2457 1.15346 18.2457C0.459659 18.2457 -0.00888269 17.7851 0.000127718 17.0667V8.64778C-0.00888269 3.67381 2.72127 0.892072 7.57788 0.892072ZM77.1562 0.892072H78.8322C83.6888 0.892072 86.4099 3.67381 86.4099 8.64778V12.6822C86.4009 13.4007 85.9504 13.8797 85.2566 13.8797C84.5628 13.8797 84.0942 13.4007 84.1032 12.6822L84.0852 8.95174C84.0942 4.92651 82.4634 3.25931 78.4898 3.25931H77.4986C73.525 3.25931 71.8761 4.90809 71.8761 8.95174V10.0294C71.8761 14.0639 73.516 15.7403 77.4986 15.7403H83.887C85.5359 15.7403 86.1126 16.1548 86.9956 17.0575L87.5272 17.6009C88.1039 18.1904 88.1579 18.9089 87.6624 19.4063C87.1668 19.9129 86.491 19.8853 85.8242 19.1944L85.2386 18.5957C84.9502 18.3102 84.6889 18.0891 83.9681 18.0799H77.1472C72.2996 18.0891 69.5695 15.2982 69.5695 10.3242V8.63857C69.5785 3.67381 72.2996 0.892072 77.1562 0.892072ZM33.5999 8.96096V10.0386C33.5999 14.0731 35.2398 15.7495 39.2224 15.7495H40.2136C44.1872 15.7495 45.809 14.0731 45.809 10.0386V8.96096C45.809 4.92651 44.1872 3.26852 40.2136 3.26852H39.2224C35.2488 3.26852 33.5999 4.9173 33.5999 8.96096ZM38.88 0.892072H40.556C45.4126 0.892072 48.1337 3.67381 48.1337 8.64778V10.3334C48.1337 15.3074 45.4126 18.0891 40.556 18.0891H38.88C34.0234 18.0891 31.3023 15.3074 31.3023 10.3334V8.64778C31.3023 3.67381 34.0324 0.892072 38.88 0.892072Z" fill="black"/>
</svg>
