<svg width="328" height="67" viewBox="0 0 328 67" fill="none" xmlns="http://www.w3.org/2000/svg">
<path d="M85.3956 44.1362V27.2159C85.3774 25.7889 86.3267 24.8438 87.7326 24.8438C89.1384 24.8438 90.0695 25.7889 90.0695 27.2159L90.0513 43.5246C90.0513 51.6048 93.3741 55.0148 101.444 55.0148L107.323 54.9962C108.729 55.0148 109.66 55.9414 109.66 57.3684C109.66 58.7954 108.729 59.7592 107.323 59.7406H100.768C90.9276 59.7592 85.3774 54.1252 85.3956 44.1362ZM164.559 25.1217H167.956C177.797 25.1217 183.292 30.7186 183.31 40.7262V57.6835C183.292 59.1104 182.379 60.0371 180.973 60.0371C179.567 60.0371 178.618 59.1104 178.637 57.6835L178.6 41.3563C178.618 33.2575 175.313 29.9031 167.262 29.9031H165.254C157.202 29.9031 153.861 33.239 153.861 41.3563L153.879 57.6649C153.861 59.1104 152.948 60.0371 151.543 60.0371C150.137 60.0371 149.187 59.1104 149.205 57.6649V40.7262C149.187 30.7186 154.719 25.1217 164.559 25.1217ZM62.3547 25.1217H65.7506C75.0984 25.1217 81.0868 30.1811 81.0868 39.7068C81.0868 49.1585 75.0984 54.3105 65.7506 54.292H59.0318C57.6078 54.3105 56.6949 53.3468 56.6949 51.9199C56.6949 50.4928 57.6078 49.5662 59.0318 49.5476L65.0569 49.5662C72.6154 49.5662 76.3947 46.6566 76.3947 39.7068C76.3947 32.7572 72.6154 29.9031 65.0569 29.9031H63.0485C54.997 29.9031 51.6559 33.239 51.6559 41.3563L51.6742 57.6649C51.6559 59.1104 50.743 60.0371 49.3372 60.0371C47.9314 60.0371 46.982 59.1104 47.0003 57.6649V40.7262C46.982 30.7186 52.514 25.1217 62.3547 25.1217ZM203.338 25.1217H206.735C216.575 25.1217 222.089 30.7186 222.089 40.7262V48.8434C222.07 50.289 221.158 51.2527 219.752 51.2527C218.346 51.2527 217.397 50.289 217.415 48.8434L217.379 41.3377C217.397 33.239 214.092 29.8846 206.041 29.8846H204.033C195.981 29.8846 192.64 33.2019 192.64 41.3377V43.506C192.64 51.6233 195.963 54.9962 204.033 54.9962H216.977C220.318 54.9962 221.486 55.8302 223.275 57.6464L224.353 58.7398C225.521 59.9259 225.631 61.3714 224.627 62.3722C223.622 63.3915 222.253 63.3358 220.902 61.946L219.716 60.7413C219.131 60.1669 218.602 59.7221 217.141 59.7035H203.32C193.497 59.7221 187.966 54.1067 187.966 44.0991V40.7076C187.984 30.7186 193.497 25.1217 203.338 25.1217ZM115.082 41.3563V43.5246C115.082 51.6419 118.405 55.0148 126.475 55.0148H128.483C136.535 55.0148 139.821 51.6419 139.821 43.5246V41.3563C139.821 33.239 136.535 29.9031 128.483 29.9031H126.475C118.423 29.9031 115.082 33.2205 115.082 41.3563ZM125.781 25.1217H129.177C139.018 25.1217 144.531 30.7186 144.531 40.7262V44.1177C144.531 54.1252 139.018 59.7221 129.177 59.7221H125.781C115.94 59.7221 110.427 54.1252 110.427 44.1177V40.7262C110.427 30.7186 115.959 25.1217 125.781 25.1217Z" fill="white"/>
<path d="M314.213 22.0723H256.821C250.312 22.0723 245.035 27.4915 245.035 34.1764V53.1221C245.035 59.807 250.312 65.2263 256.821 65.2263H314.213C320.722 65.2263 325.999 59.807 325.999 53.1221V34.1764C325.999 27.4915 320.722 22.0723 314.213 22.0723Z" stroke="white" stroke-width="3"/>
<path d="M266.889 53.3796C264.415 53.3796 262.19 52.385 260.215 50.3958L261.603 48.8636C263.365 50.584 265.136 51.4442 266.915 51.4442C268.25 51.4442 269.336 51.05 270.172 50.2614C271.009 49.4728 271.427 48.4604 271.427 47.2239C271.427 46.0591 270.991 45.1093 270.119 44.3745C269.265 43.6398 268.152 43.2724 266.782 43.2724C265.501 43.2724 264.192 43.6309 262.858 44.3477L261.443 43.4068L261.977 34.2405H272.735V36.2028H263.819L263.418 42.2241C264.682 41.6686 265.91 41.3908 267.102 41.3908C268.971 41.3908 270.51 41.9194 271.72 42.9768C272.948 44.0161 273.562 45.4229 273.562 47.197C273.562 49.0249 272.94 50.5124 271.694 51.6592C270.448 52.806 268.846 53.3796 266.889 53.3796ZM290.389 50.5571C288.929 52.4387 287.025 53.3796 284.676 53.3796C282.327 53.3796 280.422 52.4478 278.963 50.584C277.522 48.7023 276.801 46.3906 276.801 43.6488C276.801 40.9428 277.53 38.649 278.99 36.7673C280.467 34.8678 282.38 33.918 284.729 33.918C287.078 33.918 288.974 34.8588 290.415 36.7404C291.857 38.6042 292.578 40.9069 292.578 43.6488C292.578 46.3547 291.848 48.6576 290.389 50.5571ZM280.591 49.1593C281.659 50.6825 283.038 51.4442 284.729 51.4442C286.42 51.4442 287.781 50.6915 288.814 49.1862C289.864 47.663 290.389 45.8171 290.389 43.6488C290.389 41.5162 289.855 39.6883 288.787 38.1651C287.737 36.6239 286.367 35.8534 284.676 35.8534C282.985 35.8534 281.615 36.615 280.565 38.1382C279.515 39.6436 278.99 41.4804 278.99 43.6488C278.99 45.7813 279.524 47.6181 280.591 49.1593ZM309.472 50.5571C308.012 52.4387 306.108 53.3796 303.759 53.3796C301.41 53.3796 299.505 52.4478 298.046 50.584C296.605 48.7023 295.884 46.3906 295.884 43.6488C295.884 40.9428 296.614 38.649 298.073 36.7673C299.55 34.8678 301.463 33.918 303.812 33.918C306.161 33.918 308.057 34.8588 309.498 36.7404C310.94 38.6042 311.661 40.9069 311.661 43.6488C311.661 46.3547 310.931 48.6576 309.472 50.5571ZM299.675 49.1593C300.742 50.6825 302.121 51.4442 303.812 51.4442C305.503 51.4442 306.865 50.6915 307.897 49.1862C308.947 47.663 309.472 45.8171 309.472 43.6488C309.472 41.5162 308.938 39.6883 307.87 38.1651C306.82 36.6239 305.45 35.8534 303.759 35.8534C302.068 35.8534 300.698 36.615 299.648 38.1382C298.598 39.6436 298.073 41.4804 298.073 43.6488C298.073 45.7813 298.607 47.6181 299.675 49.1593Z" fill="white"/>
<path d="M0 12.9081V0.0367746H1.34326L9.34836 10.3522V0.0367746H10.7461V12.9081H9.60249L1.39772 2.35361V12.9081H0ZM14.3409 12.9081V0.0367746H23.5259V1.36068H15.7749V5.7553H22.709V7.07921H15.7749V11.5842H23.6166V12.9081H14.3409ZM30.0592 13L25.5212 0.0367746H27.0822L30.7126 10.7567L34.1978 0H35.3777L38.8629 10.7567L42.4934 0.0367746H44L39.462 13H38.2458L34.7606 2.55587L31.2572 13H30.0592Z" fill="#92E7E4"/>
</svg>
